<?xml version="1.0" encoding="UTF-8"?>
<svg xmlns="http://www.w3.org/2000/svg" version="1.1" viewBox="0 0 561 173">
  <defs>
    <style>
      .cls-1 {
        fill: #195ad7;
      }

      .cls-2 {
        fill: #ff0600;
      }
    </style>
  </defs>
  <!-- Generator: Adobe Illustrator 28.7.4, SVG Export Plug-In . SVG Version: 1.2.0 Build 166)  -->
  <g>
    <g id="Layer_1">
      <g>
        <g>
          <path class="cls-1" d="M276.1,77.1c1.3,9.4.9,18.8.9,28.2h-7.9v-37.6c1.5,0,3,0,4.5,0,1.8,0,3.6,0,5.5,0,.8,0,1.2.2,1.5,1,3.3,8.7,6.6,17.5,10,26.2.1.4.3.7.5,1.1-1.6-9.4-.8-18.8-1-28.2h8v37.6h-.8c-3.2,0-6.4,0-9.6,0-.7,0-1-.2-1.2-.9-3.3-8.9-6.6-17.7-9.9-26.6-.1-.3-.2-.5-.4-.8Z"/>
          <path class="cls-1" d="M376,91v14.3h-8.9v-37.4c.2,0,.3,0,.5,0,4.8,0,9.5,0,14.3.1,2.4,0,4.8.5,7.1,1.6,3.2,1.5,5.1,3.9,5.6,7.4.5,3.4.2,6.6-2.3,9.2-1.1,1.1-2.4,1.9-3.7,2.8-.3.2-.6.3-1,.5,3.1,5.3,6.3,10.5,9.5,15.9-.4,0-.7,0-1,0-2.7,0-5.5,0-8.2,0-.6,0-1-.2-1.3-.8-2.3-4.3-4.6-8.6-6.9-12.9-.3-.5-.6-.8-1.2-.8-.8,0-1.6,0-2.6,0ZM376,84.8c1.3,0,2.5,0,3.7,0,.3,0,.7,0,1,0,2.5-.2,4.1-1.4,4.6-3.6.2-1,.2-2.1.2-3.1-.2-2-1.4-3.4-3.3-3.7-2-.4-4.1-.4-6.2-.5v10.9Z"/>
          <path class="cls-1" d="M402.1,87.5c.1-5.1.7-9.1,2.7-12.7,2.7-4.9,7-7.4,12.5-7.9,3.2-.3,6.3,0,9.2,1.3,4.2,1.9,6.9,5.1,8.2,9.4,1.9,5.9,1.9,11.8,0,17.6-2.2,6.8-7.7,10.7-14.9,10.9-3.9,0-7.6-.6-10.8-3-3.4-2.5-5.3-6.1-6.1-10.1-.4-2.2-.6-4.4-.8-5.5ZM426.7,86.5c0-3-.2-6.1-1.4-9-1.2-2.7-3.2-4.1-6.2-4.1-3,0-5,1.4-6.2,4.1-.2.6-.4,1.1-.6,1.7-1,3.6-1,7.3-.6,11,.2,1.9.7,3.9,1.4,5.7.6,1.8,2,3.1,3.9,3.6,3.7,1,7.2-.2,8.7-4.5.9-2.7,1-5.5,1.1-8.4Z"/>
          <path class="cls-1" d="M356.8,71.4c-1.5,1.6-3,3.2-4.6,4.8-.5-.4-1-.7-1.5-1.1-3.2-2.1-6.5-2.6-10-1-2.5,1.2-3.8,3.5-4.5,6.1-1.2,4.5-1,9.1,0,13.6.6,2.7,2,4.8,5,5.5,2.2.5,4.4.2,6.5-.7.3-.1.6-.4.6-.7,0-2.6,0-5.3,0-8.1-1.4,0-2.7,0-3.9,0-.7,0-1-.2-1.1-.9-.2-1.8-.5-3.5-.7-5.4h14.4c0,.2,0,.5,0,.8,0,5.7,0,11.4,0,17.1,0,.4-.2.9-.5,1-5.9,3.5-12.3,4.6-19,2.9-5.6-1.4-8.9-5.4-10.3-10.9-1.5-6-1.6-12.1,1-17.8,2.8-6.1,7.8-9.3,14.4-9.9,4.9-.4,9.4.8,13.3,3.8.3.2.5.4.8.7Z"/>
          <path class="cls-1" d="M444.7,67.8h8.9v1.2c0,7.5,0,15,0,22.5,0,1.1,0,2.2.2,3.3.6,4.2,3.3,5.2,6.7,4.8,2.7-.3,4.2-2.1,4.5-5.1,0-.6,0-1.3,0-1.9,0-7.8,0-15.6,0-23.4v-1.3h8.9v1.2c0,7.9,0,15.9,0,23.8,0,7.5-4.8,12.7-12.3,13.3-2.8.2-5.6.1-8.4-.7-5.2-1.6-8.4-5.7-8.6-11.1-.1-4.7,0-9.4,0-14,0-3.8,0-7.6,0-11.4v-1.1Z"/>
          <path class="cls-1" d="M183,105.4c-3.1,0-6,0-8.9,0-.2,0-.6-.4-.7-.6-.6-2.2-1.1-4.4-1.6-6.5,0-.3-.2-.6-.3-.9h-10.9c-.6,2.7-1.3,5.3-1.9,8h-9.2c0-.3.1-.6.2-.9,3.6-11.9,7.2-23.9,10.8-35.8.2-.7.5-.9,1.3-.9,3,0,6,0,9,0,.7,0,.9.2,1.1.8,3.6,11.9,7.2,23.9,10.8,35.8,0,.3.1.6.3,1ZM166.3,74.8c0,0-.1,0-.2,0-1.3,5.3-2.5,10.6-3.8,16h7.8c-1.3-5.4-2.5-10.7-3.8-15.9Z"/>
          <path class="cls-1" d="M493.4,92.6v12.6h-8.8v-37.4c.2,0,.4,0,.6,0,4.4,0,8.8,0,13.2,0,2.3,0,4.5.5,6.7,1.3,5.4,2.1,7.4,6.3,7.3,11.4-.1,4.1-1.6,7.5-5.1,9.8-2.1,1.4-4.4,2.1-6.8,2.3-2.3.1-4.5,0-7,0ZM493.5,86.5c1.9-.1,3.7-.2,5.6-.4,2.1-.3,3.4-1.8,3.8-3.9.2-1,.3-2,.2-3-.2-2.5-1.4-4.2-3.7-4.7-1.9-.4-3.9-.4-5.9-.6v12.6Z"/>
          <path class="cls-1" d="M240.1,84c-.3,2.2-.6,4.2-.9,6.4h-10.2v14.9h-8.9v-37.5h22.4c-.2,1.6-.4,3.1-.7,4.7-.2,1.6-.3,1.6-1.9,1.6-3.3,0-6.6,0-9.8,0h-1v9.9h11.1Z"/>
          <path class="cls-1" d="M190.1,67.8h22.4c-.3,2.1-.6,4.1-.9,6.3h-12.5v9.9h11.1c-.3,2.2-.6,4.2-.9,6.4h-10.2v14.9h-8.9v-37.5Z"/>
          <path class="cls-1" d="M251,67.8h8.8v37.5h-8.8v-37.5Z"/>
        </g>
        <g>
          <path class="cls-1" d="M113.6,48.6h0s0,0,0,0M113.6,48.5s-11.9,0-19.5,11.5c-6.5,9.8-3.5,20.2-3.5,20.2l5.6-1.5c-1.5-6.3.5-11.9,2.8-15.5,3.6-5.6,9.2-7.6,9.5-7.6,3.4-1,4.4-1,5.9-1,.2-2.5-.7-6.1-.7-6.1"/>
          <path class="cls-2" d="M110.2,67.6c0,1.6-1.3,3-3,3s-3-1.3-3-3,1.3-3,3-3,3,1.3,3,3"/>
          <path class="cls-2" d="M113.8,60c0,1.6-1.3,3-3,3s-3-1.3-3-3,1.3-3,3-3,3,1.3,3,3"/>
          <path class="cls-2" d="M104,73.7c0,1.6-1.3,3-3,3s-3-1.3-3-3,1.3-3,3-3,3,1.3,3,3"/>
          <path class="cls-1" d="M89.4,96.6c.9,1.7,1.5,3.6,1.8,5.6.6,4.1,0,8.2-1.8,11.8-.3.5-.6,1.1-.9,1.6-.3-.5-.6-1.1-.9-1.6-2.8-5.6-2.6-12,0-17.4,0,0,0-.2.1-.3,0,0,0-.1,0-.2.1-.2.2-.4.3-.6,0,0,0-.1.1-.2,0,0,0-.1.1-.2,0,0,0-.1.1-.2.3.5.6,1.1.9,1.6M75.5,87.7c-1.4,1.4-3,2.5-4.8,3.4-3.7,1.9-7.8,2.5-11.8,1.9-.6,0-1.2-.2-1.8-.4.4-.5.8-.9,1.3-1.3.7-.7,1.4-1.3,2.2-1.8,4.2-3,9.4-4.3,14.4-3.5.6,0,1.2.2,1.8.4-.4.5-.8.9-1.3,1.3M81,78.6c0,0,.1,0,.2,0,0,0-.1,0-.2,0,0,0,0,0,0,0,0,0-.1,0-.1,0,0,0,0,0,.1,0M124.5,89.3c-3.9-4.8-9.4-8-15.6-8.9-3.4-.5-6.9-.4-10.2.4-.5.1-1,.3-1.5.4-1.8.6-3.6,1.4-5.3,2.4-.5.3-.9.6-1.4.9-.2.1-.3.2-.5.3,0,0-.2.1-.3.2-.4.3-.9.7-1.3,1-.4-.4-.8-.7-1.3-1-.1-.1-.3-.2-.4-.3,0,0-.2-.1-.3-.2-.4-.3-.9-.6-1.4-.9.2-.5.4-1,.6-1.5,0-.2.1-.3.2-.5,0-.1,0-.2.1-.4.2-.5.3-1,.4-1.6.5-1.9.7-3.9.7-5.8,0-.5,0-1.1,0-1.6-.2-3.4-1.1-6.8-2.7-10-2.8-5.5-7.4-9.7-13.1-12-.5-.2-1-.4-1.5-.5,0,0,0,0,0,0-1.9-.6-3.8-1-5.7-1.2-.4,1.9-.7,3.8-.7,5.8,0,0,0,0,0,.1,0,.5,0,1,0,1.5.4,6.2,2.9,12,7.4,16.4s5.3,4.4,8.5,5.6c.5-2.1.6-4.2.4-6.3-5.3-2.8-9.2-8-10.2-14.1,0-.6-.2-1.2-.2-1.8.6.2,1.1.5,1.7.8,5.5,2.9,9.2,8.2,10.2,14.1,0,.6.2,1.2.2,1.8.1,2,0,4-.5,6,0,.4-.2.8-.3,1.1,0,0,0,0,0,.1,0,0,0,.2,0,.3-.1.4-.3.7-.4,1.1-.5-.2-1-.3-1.5-.5-3.3-.9-6.8-1.1-10.3-.5-6.1,1-11.6,4.1-15.5,8.8-.3.4-.7.8-1,1.3,0,0,0,0,0,0-1.1,1.6-2.1,3.3-2.8,5,1.7,1,3.4,1.8,5.3,2.5h0c.5.2,1,.3,1.4.5,6,1.6,12.3.9,17.9-1.9,1.2-.6,2.4-1.3,3.4-2.1,1.7-1.2,3.2-2.6,4.5-4.2.3-.4.7-.8,1-1.3.3.2.7.4,1,.7,0,0,0,0,.1,0,0,0,.1.1.2.2.3.2.6.5.9.7-.3.4-.6.9-.9,1.3-1.9,2.9-3.1,6.2-3.7,9.7-1,6.1.3,12.2,3.6,17.4.3.5.6.9.9,1.3,0,0,0,0,0,0,1.1,1.6,2.5,3,3.9,4.3,1.5-1.3,2.8-2.7,4-4.3,0,0,0,0,0,0,.3-.4.6-.8.8-1.2,3.3-5.2,4.7-11.4,3.7-17.6-.5-3.4-1.8-6.7-3.6-9.5-.3-.5-.6-.9-.9-1.3.3-.3.6-.5.9-.7,0,0,0,0,.1,0,0,0,.1-.1.2-.2.3-.2.7-.4,1-.7,1.8-1.1,3.6-1.9,5.6-2.3.6-.1,1.2-.3,1.8-.3,5.9-.9,12.1,1.1,16.5,5.4.4.4.8.9,1.2,1.4-.6.1-1.2.3-1.8.4-4,.6-8,0-11.7-1.9-1.8-.9-3.5-2.1-4.9-3.5-2,.4-4,1.1-5.8,2.3,2.2,2.7,4.9,4.9,8.1,6.5,5.5,2.8,11.7,3.5,17.7,2,.5-.1,1-.3,1.5-.4,0,0,0,0,0,0,1.9-.6,3.6-1.4,5.3-2.4-.7-1.8-1.7-3.5-2.9-5.1,0,0,0,0,0,0-.3-.4-.6-.8-.9-1.2"/>
        </g>
      </g>
    </g>
  </g>
</svg>