<?xml version="1.0" encoding="UTF-8"?>
<svg id="Layer_2" data-name="Layer 2" xmlns="http://www.w3.org/2000/svg" viewBox="0 0 463.4 75.7">
  <defs>
    <style>
      .cls-1 {
        fill: #ff0600;
      }

      .cls-2 {
        fill: #195ad7;
      }
    </style>
  </defs>
  <g id="Layer_1-2" data-name="Layer 1">
    <g id="Layer_1-3" data-name="Layer 1">
      <g>
        <g>
          <path class="cls-2" d="m227.1,28.6c1.3,9.4.9,18.8.9,28.2h-7.9V19.2h10c.8,0,1.2.2,1.5,1,3.3,8.7,6.6,17.5,10,26.2.1.4.3.7.5,1.1-1.6-9.4-.8-18.8-1-28.2h8v37.6h-10.4c-.7,0-1-.2-1.2-.9-3.3-8.9-6.6-17.7-9.9-26.6-.1-.3-.2-.5-.4-.8h-.1Z"/>
          <path class="cls-2" d="m327,42.5v14.3h-8.9V19.4h.5c4.8,0,9.5,0,14.3.1,2.4,0,4.8.5,7.1,1.6,3.2,1.5,5.1,3.9,5.6,7.4.5,3.4.2,6.6-2.3,9.2-1.1,1.1-2.4,1.9-3.7,2.8-.3.2-.6.3-1,.5,3.1,5.3,6.3,10.5,9.5,15.9h-9.2c-.6,0-1-.2-1.3-.8-2.3-4.3-4.6-8.6-6.9-12.9-.3-.5-.6-.8-1.2-.8h-2.6l.1.1Zm0-6.2h4.7c2.5-.2,4.1-1.4,4.6-3.6.2-1,.2-2.1.2-3.1-.2-2-1.4-3.4-3.3-3.7-2-.4-4.1-.4-6.2-.5v10.9h0Z"/>
          <path class="cls-2" d="m353.1,39c.1-5.1.7-9.1,2.7-12.7,2.7-4.9,7-7.4,12.5-7.9,3.2-.3,6.3,0,9.2,1.3,4.2,1.9,6.9,5.1,8.2,9.4,1.9,5.9,1.9,11.8,0,17.6-2.2,6.8-7.7,10.7-14.9,10.9-3.9,0-7.6-.6-10.8-3-3.4-2.5-5.3-6.1-6.1-10.1-.4-2.2-.6-4.4-.8-5.5h0Zm24.6-1c0-3-.2-6.1-1.4-9-1.2-2.7-3.2-4.1-6.2-4.1s-5,1.4-6.2,4.1c-.2.6-.4,1.1-.6,1.7-1,3.6-1,7.3-.6,11,.2,1.9.7,3.9,1.4,5.7.6,1.8,2,3.1,3.9,3.6,3.7,1,7.2-.2,8.7-4.5.9-2.7,1-5.5,1.1-8.4l-.1-.1Z"/>
          <path class="cls-2" d="m307.8,22.9c-1.5,1.6-3,3.2-4.6,4.8-.5-.4-1-.7-1.5-1.1-3.2-2.1-6.5-2.6-10-1-2.5,1.2-3.8,3.5-4.5,6.1-1.2,4.5-1,9.1,0,13.6.6,2.7,2,4.8,5,5.5,2.2.5,4.4.2,6.5-.7.3-.1.6-.4.6-.7v-8.1h-3.9c-.7,0-1-.2-1.1-.9-.2-1.8-.5-3.5-.7-5.4h14.4v17.9c0,.4-.2.9-.5,1-5.9,3.5-12.3,4.6-19,2.9-5.6-1.4-8.9-5.4-10.3-10.9-1.5-6-1.6-12.1,1-17.8,2.8-6.1,7.8-9.3,14.4-9.9,4.9-.4,9.4.8,13.3,3.8.3.2.5.4.8.7l.1.2Z"/>
          <path class="cls-2" d="m395.7,19.3h8.9v23.7c0,1.1,0,2.2.2,3.3.6,4.2,3.3,5.2,6.7,4.8,2.7-.3,4.2-2.1,4.5-5.1v-26.6h8.9v25c0,7.5-4.8,12.7-12.3,13.3-2.8.2-5.6.1-8.4-.7-5.2-1.6-8.4-5.7-8.6-11.1-.1-4.7,0-9.4,0-14v-12.5l.1-.1Z"/>
          <path class="cls-2" d="m134,56.9h-8.9c-.2,0-.6-.4-.7-.6-.6-2.2-1.1-4.4-1.6-6.5,0-.3-.2-.6-.3-.9h-10.9c-.6,2.7-1.3,5.3-1.9,8h-9.2c0-.3.1-.6.2-.9,3.6-11.9,7.2-23.9,10.8-35.8.2-.7.5-.9,1.3-.9h9c.7,0,.9.2,1.1.8,3.6,11.9,7.2,23.9,10.8,35.8,0,.3.1.6.3,1h0Zm-16.7-30.6h-.2c-1.3,5.3-2.5,10.6-3.8,16h7.8c-1.3-5.4-2.5-10.7-3.8-15.9v-.1Z"/>
          <path class="cls-2" d="m444.4,44.1v12.6h-8.8V19.3h13.8c2.3,0,4.5.5,6.7,1.3,5.4,2.1,7.4,6.3,7.3,11.4-.1,4.1-1.6,7.5-5.1,9.8-2.1,1.4-4.4,2.1-6.8,2.3-2.3.1-4.5,0-7,0h-.1Zm.1-6.1c1.9-.1,3.7-.2,5.6-.4,2.1-.3,3.4-1.8,3.8-3.9.2-1,.3-2,.2-3-.2-2.5-1.4-4.2-3.7-4.7-1.9-.4-3.9-.4-5.9-.6v12.6Z"/>
          <path class="cls-2" d="m191.1,35.5c-.3,2.2-.6,4.2-.9,6.4h-10.2v14.9h-8.9V19.3h22.4c-.2,1.6-.4,3.1-.7,4.7-.2,1.6-.3,1.6-1.9,1.6h-10.8v9.9h11.1-.1Z"/>
          <path class="cls-2" d="m141.1,19.3h22.4c-.3,2.1-.6,4.1-.9,6.3h-12.5v9.9h11.1c-.3,2.2-.6,4.2-.9,6.4h-10.2v14.9h-8.9V19.3h-.1Z"/>
          <path class="cls-2" d="m202,19.3h8.8v37.5h-8.8V19.3h0Z"/>
        </g>
        <g>
          <path class="cls-2" d="m64.6,0s-11.9,0-19.5,11.5c-6.5,9.8-3.5,20.2-3.5,20.2l5.6-1.5c-1.5-6.3.5-11.9,2.8-15.5,3.6-5.6,9.2-7.6,9.5-7.6,3.4-1,4.4-1,5.9-1,.2-2.5-.7-6.1-.7-6.1"/>
          <path class="cls-1" d="m61.2,19.1c0,1.6-1.3,3-3,3s-3-1.3-3-3,1.3-3,3-3,3,1.3,3,3"/>
          <path class="cls-1" d="m64.8,11.5c0,1.6-1.3,3-3,3s-3-1.3-3-3,1.3-3,3-3,3,1.3,3,3"/>
          <path class="cls-1" d="m55,25.2c0,1.6-1.3,3-3,3s-3-1.3-3-3,1.3-3,3-3,3,1.3,3,3"/>
          <path class="cls-2" d="m40.4,48.1c.9,1.7,1.5,3.6,1.8,5.6.6,4.1,0,8.2-1.8,11.8-.3.5-.6,1.1-.9,1.6-.3-.5-.6-1.1-.9-1.6-2.8-5.6-2.6-12,0-17.4,0,0,0-.2.1-.3v-.2c.1-.2.2-.4.3-.6,0,0,0-.1.1-.2,0,0,0-.1.1-.2,0,0,0-.1.1-.2.3.5.6,1.1.9,1.6m-13.7-8.8c-1.4,1.4-3,2.5-4.8,3.4-3.7,1.9-7.8,2.5-11.8,1.9-.6,0-1.2-.2-1.8-.4.4-.5.8-.9,1.3-1.3.7-.7,1.4-1.3,2.2-1.8,4.2-3,9.4-4.3,14.4-3.5.6,0,1.2.2,1.8.4-.4.5-.8.9-1.3,1.3m5.5-9.1h.2-.3.1m43.5,10.7c-3.9-4.8-9.4-8-15.6-8.9-3.4-.5-6.9-.4-10.2.4-.5.1-1,.3-1.5.4-1.8.6-3.6,1.4-5.3,2.4-.5.3-.9.6-1.4.9-.2.1-.3.2-.5.3,0,0-.2.1-.3.2-.4.3-.9.7-1.3,1-.4-.4-.8-.7-1.3-1-.1-.1-.3-.2-.4-.3,0,0-.2-.1-.3-.2-.4-.3-.9-.6-1.4-.9.2-.5.4-1,.6-1.5,0-.2.1-.3.2-.5,0-.1,0-.2.1-.4.2-.5.3-1,.4-1.6.5-1.9.7-3.9.7-5.8v-1.6c-.2-3.4-1.1-6.8-2.7-10-2.8-5.5-7.4-9.7-13.1-12-.5-.2-1-.4-1.5-.5h0C18.8.6,16.9.2,15,0c-.4,1.9-.7,3.8-.7,5.8v1.6c.4,6.2,2.9,12,7.4,16.4s5.3,4.4,8.5,5.6c.5-2.1.6-4.2.4-6.3-5.3-2.8-9.2-8-10.2-14.1,0-.6-.2-1.2-.2-1.8.6.2,1.1.5,1.7.8,5.5,2.9,9.2,8.2,10.2,14.1,0,.6.2,1.2.2,1.8.1,2,0,4-.5,6,0,.4-.2.8-.3,1.1v.4c-.1.4-.3.7-.4,1.1-.5-.2-1-.3-1.5-.5-3.3-.9-6.8-1.1-10.3-.5-6.1,1-11.6,4.1-15.5,8.8-.3.4-.7.8-1,1.3h0c-1.1,1.6-2.1,3.3-2.8,5,1.7,1,3.4,1.8,5.3,2.5h0c.5.2,1,.3,1.4.5,6,1.6,12.3.9,17.9-1.9,1.2-.6,2.4-1.3,3.4-2.1,1.7-1.2,3.2-2.6,4.5-4.2.3-.4.7-.8,1-1.3.3.2.7.4,1,.7h.1l.2.2c.3.2.6.5.9.7-.3.4-.6.9-.9,1.3-1.9,2.9-3.1,6.2-3.7,9.7-1,6.1.3,12.2,3.6,17.4.3.5.6.9.9,1.3h0c1.1,1.6,2.5,3,3.9,4.3,1.5-1.3,2.8-2.7,4-4.3h0c.3-.4.6-.8.8-1.2,3.3-5.2,4.7-11.4,3.7-17.6-.5-3.4-1.8-6.7-3.6-9.5-.3-.5-.6-.9-.9-1.3.3-.3.6-.5.9-.7h.1l.2-.2c.3-.2.7-.4,1-.7,1.8-1.1,3.6-1.9,5.6-2.3.6-.1,1.2-.3,1.8-.3,5.9-.9,12.1,1.1,16.5,5.4.4.4.8.9,1.2,1.4-.6.1-1.2.3-1.8.4-4,.6-8,0-11.7-1.9-1.8-.9-3.5-2.1-4.9-3.5-2,.4-4,1.1-5.8,2.3,2.2,2.7,4.9,4.9,8.1,6.5,5.5,2.8,11.7,3.5,17.7,2,.5-.1,1-.3,1.5-.4h0c1.9-.6,3.6-1.4,5.3-2.4-.7-1.8-1.7-3.5-2.9-5.1h0c-.3-.4-.6-.8-.9-1.2"/>
        </g>
      </g>
    </g>
  </g>
</svg>