<?xml version="1.0" encoding="UTF-8"?>
<svg id="Layer_1" data-name="Layer 1" xmlns="http://www.w3.org/2000/svg" viewBox="0 0 273.63 95.84">
  <defs>
    <style>
      .cls-1, .cls-2, .cls-3 {
        stroke-width: 0px;
      }

      .cls-2 {
        fill: #df1522;
      }

      .cls-3 {
        fill: #003a8c;
      }
    </style>
  </defs>
  <g>
    <path class="cls-2" d="M106.61,15.83S99.96-1.76,73.39.14c-4.98.37-9.44,1.27-16.74,3.64C20.24,15.59-22.03,68.43,13.29,91.91c0,0,13.02,8.48,31.97.4,18.94-8.09,25.06-33.2,18.16-38.72-6.26-5.01-14.01.59-21.9.99-4.14.21-15.79-.39-6.71-18.94,7.1-14.51,28.16-31.14,52.63-30.15,14.6.59,19.18,10.35,19.18,10.35"/>
    <path class="cls-3" d="M46.03,95.84s47-10.24,61.83-51.33c.77-2.13,1.51-4.92,1.98-7.18,2.45-11.87-2.11-31.42-24.82-27.97-24.72,3.75-36.2,22.55-36,30.47.22,8.69,6.78,7.95,14.05,6.32,10.47-2.34,19.79,4.2,17.21,17.06-2.57,12.86-17.99,26.32-34.23,32.64"/>
  </g>
  <g>
    <path class="cls-1" d="M157.87,43.02l13.16,3.98c-.88,3.69-2.28,6.77-4.18,9.25-1.9,2.48-4.26,4.34-7.08,5.6-2.82,1.26-6.4,1.89-10.76,1.89-5.28,0-9.6-.77-12.94-2.3-3.35-1.53-6.24-4.23-8.67-8.1-2.43-3.87-3.65-8.81-3.65-14.84,0-8.04,2.14-14.22,6.41-18.53,4.28-4.32,10.32-6.48,18.15-6.48,6.12,0,10.93,1.24,14.44,3.71,3.5,2.48,6.1,6.28,7.81,11.4l-13.26,2.95c-.46-1.48-.95-2.56-1.46-3.25-.84-1.15-1.87-2.03-3.08-2.65-1.22-.62-2.57-.93-4.08-.93-3.4,0-6.01,1.37-7.82,4.11-1.37,2.03-2.05,5.22-2.05,9.57,0,5.39.82,9.08,2.45,11.08,1.63,2,3.93,3,6.89,3s5.04-.81,6.51-2.42,2.54-3.96,3.2-7.03Z"/>
    <path class="cls-1" d="M201.4,45.3v-10.11h23.2v20.72c-4.44,3.03-8.37,5.09-11.78,6.18-3.42,1.09-7.46,1.64-12.15,1.64-5.77,0-10.47-.98-14.1-2.95s-6.45-4.89-8.45-8.78c-2-3.89-3-8.35-3-13.39,0-5.3,1.09-9.92,3.28-13.84,2.19-3.92,5.39-6.9,9.61-8.93,3.29-1.57,7.72-2.35,13.29-2.35s9.39.49,12.05,1.46c2.66.97,4.87,2.48,6.63,4.52,1.76,2.04,3.08,4.64,3.96,7.77l-14.49,2.59c-.6-1.83-1.61-3.24-3.03-4.21-1.43-.97-3.24-1.46-5.45-1.46-3.29,0-5.92,1.14-7.87,3.43s-2.93,5.91-2.93,10.86c0,5.26.99,9.02,2.97,11.27,1.98,2.25,4.73,3.38,8.27,3.38,1.68,0,3.28-.24,4.81-.73,1.52-.49,3.27-1.31,5.24-2.49v-4.57h-10.04Z"/>
    <path class="cls-1" d="M229.54,46.83l14.29-.89c.31,2.32.94,4.09,1.89,5.3,1.55,1.97,3.76,2.95,6.63,2.95,2.14,0,3.8-.5,4.96-1.51,1.16-1,1.74-2.17,1.74-3.5s-.55-2.39-1.66-3.38c-1.11-.99-3.67-1.93-7.69-2.82-6.59-1.48-11.28-3.45-14.09-5.9-2.83-2.45-4.24-5.58-4.24-9.38,0-2.5.72-4.86,2.17-7.08s3.62-3.97,6.53-5.24c2.91-1.27,6.89-1.91,11.95-1.91,6.21,0,10.94,1.16,14.2,3.46,3.26,2.31,5.2,5.98,5.82,11.02l-14.15.83c-.38-2.19-1.17-3.78-2.37-4.77-1.21-.99-2.87-1.49-4.99-1.49-1.75,0-3.06.37-3.94,1.11-.88.74-1.33,1.64-1.33,2.7,0,.77.37,1.47,1.09,2.09.71.64,2.39,1.24,5.04,1.79,6.56,1.41,11.26,2.85,14.1,4.29,2.84,1.45,4.91,3.24,6.2,5.39,1.29,2.14,1.94,4.54,1.94,7.19,0,3.12-.86,5.99-2.58,8.62-1.72,2.63-4.13,4.62-7.23,5.98-3.09,1.36-6.99,2.04-11.7,2.04-8.27,0-13.99-1.59-17.17-4.77s-4.98-7.23-5.4-12.13Z"/>
  </g>
  <g>
    <path class="cls-1" d="M129.21,91.18v-18.85h2.49v18.85h-2.49Z"/>
    <path class="cls-1" d="M135.8,91.18v-13.66h2.08v1.94c1-1.5,2.45-2.25,4.35-2.25.82,0,1.58.15,2.27.44.69.29,1.21.68,1.55,1.16.34.48.58,1.05.72,1.71.09.43.13,1.18.13,2.25v8.4h-2.31v-8.31c0-.94-.09-1.65-.27-2.12-.18-.47-.5-.84-.96-1.12-.46-.28-1-.42-1.61-.42-.99,0-1.84.31-2.55.94-.72.63-1.07,1.81-1.07,3.56v7.46h-2.31Z"/>
    <path class="cls-1" d="M155.5,89.11l.33,2.04c-.65.14-1.23.21-1.75.21-.84,0-1.49-.13-1.96-.4s-.79-.62-.98-1.05c-.19-.43-.28-1.34-.28-2.73v-7.86h-1.7v-1.8h1.7v-3.38l2.3-1.39v4.77h2.33v1.8h-2.33v7.98c0,.66.04,1.08.12,1.27.08.19.21.34.4.45s.45.17.79.17c.26,0,.6-.03,1.02-.09Z"/>
    <path class="cls-1" d="M167.11,86.79l2.39.3c-.38,1.4-1.08,2.48-2.1,3.25-1.02.77-2.32,1.16-3.91,1.16-2,0-3.58-.62-4.75-1.84-1.17-1.23-1.76-2.96-1.76-5.18s.59-4.08,1.77-5.35c1.18-1.27,2.72-1.9,4.6-1.9s3.32.62,4.47,1.86c1.16,1.24,1.74,2.99,1.74,5.25,0,.14,0,.34-.01.62h-10.18c.09,1.5.51,2.65,1.27,3.45s1.71,1.2,2.85,1.2c.85,0,1.57-.22,2.17-.67.6-.45,1.08-1.16,1.43-2.13ZM159.51,83.05h7.62c-.1-1.15-.39-2.01-.88-2.58-.74-.89-1.69-1.34-2.87-1.34-1.06,0-1.96.36-2.68,1.07-.72.71-1.12,1.66-1.2,2.85Z"/>
    <path class="cls-1" d="M172.38,91.18v-13.66h2.08v2.07c.53-.97,1.02-1.61,1.47-1.92.45-.31.94-.46,1.48-.46.78,0,1.57.25,2.38.75l-.8,2.15c-.57-.33-1.13-.5-1.7-.5-.51,0-.96.15-1.36.46-.4.3-.69.73-.86,1.27-.26.82-.39,1.72-.39,2.7v7.15h-2.31Z"/>
    <path class="cls-1" d="M181.71,91.18v-13.66h2.08v1.94c1-1.5,2.45-2.25,4.35-2.25.82,0,1.58.15,2.27.44.69.29,1.21.68,1.55,1.16.34.48.58,1.05.72,1.71.09.43.13,1.18.13,2.25v8.4h-2.31v-8.31c0-.94-.09-1.65-.27-2.12-.18-.47-.5-.84-.96-1.12-.46-.28-1-.42-1.61-.42-.99,0-1.84.31-2.55.94-.72.63-1.07,1.81-1.07,3.56v7.46h-2.31Z"/>
    <path class="cls-1" d="M205.26,89.5c-.86.73-1.68,1.24-2.48,1.54s-1.64.45-2.55.45c-1.5,0-2.65-.37-3.46-1.1-.81-.73-1.21-1.67-1.21-2.81,0-.67.15-1.28.46-1.83.3-.55.7-1,1.2-1.33.49-.33,1.05-.59,1.67-.76.45-.12,1.14-.24,2.06-.35,1.87-.22,3.24-.49,4.13-.8,0-.32.01-.52.01-.6,0-.94-.22-1.61-.66-1.99-.59-.52-1.47-.78-2.64-.78-1.09,0-1.89.19-2.41.57-.52.38-.9,1.06-1.15,2.03l-2.26-.31c.21-.97.54-1.75,1.02-2.35.47-.6,1.15-1.05,2.04-1.38s1.92-.48,3.1-.48,2.11.14,2.84.41,1.26.62,1.61,1.04c.34.42.58.94.72,1.57.08.39.12,1.11.12,2.13v3.09c0,2.15.05,3.51.15,4.08.1.57.29,1.12.58,1.64h-2.42c-.24-.48-.39-1.04-.46-1.68ZM205.07,84.33c-.84.34-2.1.63-3.78.88-.95.14-1.62.29-2.02.46-.39.17-.7.42-.91.75-.21.33-.32.7-.32,1.1,0,.62.23,1.13.7,1.54.47.41,1.15.62,2.05.62s1.68-.2,2.38-.59c.69-.39,1.2-.92,1.53-1.6.25-.52.37-1.29.37-2.31v-.85Z"/>
    <path class="cls-1" d="M216.05,89.11l.33,2.04c-.65.14-1.23.21-1.75.21-.84,0-1.49-.13-1.96-.4s-.79-.62-.98-1.05c-.19-.43-.28-1.34-.28-2.73v-7.86h-1.7v-1.8h1.7v-3.38l2.3-1.39v4.77h2.33v1.8h-2.33v7.98c0,.66.04,1.08.12,1.27.08.19.21.34.4.45s.45.17.79.17c.26,0,.6-.03,1.02-.09Z"/>
    <path class="cls-1" d="M218.85,75v-2.66h2.31v2.66h-2.31ZM218.85,91.18v-13.66h2.31v13.66h-2.31Z"/>
    <path class="cls-1" d="M223.83,84.36c0-2.53.7-4.4,2.11-5.62,1.17-1.01,2.61-1.52,4.29-1.52,1.88,0,3.41.62,4.6,1.85,1.19,1.23,1.79,2.93,1.79,5.1,0,1.76-.26,3.14-.79,4.15-.53,1.01-1.29,1.79-2.3,2.35-1.01.56-2.11.84-3.3.84-1.91,0-3.46-.61-4.63-1.84-1.18-1.23-1.77-2.99-1.77-5.3ZM226.21,84.36c0,1.75.38,3.06,1.14,3.93s1.72,1.3,2.88,1.3,2.1-.44,2.87-1.31c.76-.87,1.14-2.21,1.14-4,0-1.69-.38-2.97-1.15-3.84-.77-.87-1.72-1.3-2.86-1.3s-2.12.43-2.88,1.3-1.14,2.17-1.14,3.92Z"/>
    <path class="cls-1" d="M238.81,91.18v-13.66h2.08v1.94c1-1.5,2.45-2.25,4.35-2.25.82,0,1.58.15,2.27.44.69.29,1.21.68,1.55,1.16.34.48.58,1.05.72,1.71.09.43.13,1.18.13,2.25v8.4h-2.31v-8.31c0-.94-.09-1.65-.27-2.12-.18-.47-.5-.84-.96-1.12-.46-.28-1-.42-1.61-.42-.99,0-1.84.31-2.55.94-.72.63-1.07,1.81-1.07,3.56v7.46h-2.31Z"/>
    <path class="cls-1" d="M261.84,89.5c-.86.73-1.68,1.24-2.48,1.54s-1.64.45-2.55.45c-1.5,0-2.65-.37-3.46-1.1-.81-.73-1.21-1.67-1.21-2.81,0-.67.15-1.28.46-1.83.3-.55.7-1,1.2-1.33.49-.33,1.05-.59,1.67-.76.45-.12,1.14-.24,2.06-.35,1.87-.22,3.24-.49,4.13-.8,0-.32.01-.52.01-.6,0-.94-.22-1.61-.66-1.99-.59-.52-1.47-.78-2.64-.78-1.09,0-1.89.19-2.41.57-.52.38-.9,1.06-1.15,2.03l-2.26-.31c.21-.97.54-1.75,1.02-2.35.47-.6,1.15-1.05,2.04-1.38s1.92-.48,3.1-.48,2.11.14,2.84.41,1.26.62,1.61,1.04c.34.42.58.94.72,1.57.08.39.12,1.11.12,2.13v3.09c0,2.15.05,3.51.15,4.08.1.57.29,1.12.58,1.64h-2.42c-.24-.48-.39-1.04-.46-1.68ZM261.64,84.33c-.84.34-2.1.63-3.78.88-.95.14-1.62.29-2.02.46-.39.17-.7.42-.91.75-.21.33-.32.7-.32,1.1,0,.62.23,1.13.7,1.54.47.41,1.15.62,2.05.62s1.68-.2,2.38-.59c.69-.39,1.2-.92,1.53-1.6.25-.52.37-1.29.37-2.31v-.85Z"/>
    <path class="cls-1" d="M267.52,91.18v-18.85h2.31v18.85h-2.31Z"/>
  </g>
</svg>