<?xml version="1.0" encoding="UTF-8"?>
<svg id="Layer_1" data-name="Layer 1" xmlns="http://www.w3.org/2000/svg" viewBox="0 0 227.48 101.22">
  <defs>
    <style>
      .cls-1 {
        fill: #5bc2e7;
      }

      .cls-1, .cls-2, .cls-3 {
        stroke-width: 0px;
      }

      .cls-2 {
        fill: #ef3e42;
      }

      .cls-3 {
        fill: #0067b1;
      }
    </style>
  </defs>
  <rect class="cls-1" width="227.48" height="101.22"/>
  <g>
    <polygon class="cls-2" points="185.48 50.6 164.47 71.44 143.46 50.6 164.47 29.76 185.48 50.6"/>
    <path class="cls-3" d="M42,73.44l4.64-32.27c1.04-7.11,8.61-13.32,16.74-13.32s12.16,5.68,11.37,11.13l-.68,4.69c-.54,3.93-3.47,7.73-8.67,10.53l5.31,8.94c.61.98.86,2.49.61,4.09-.55,3.4-3.11,6.21-5.92,6.21-1.53,0-2.76-.83-3.49-2.12l-7.82-13.41-1.35,9.39c-.48,3.41-3.05,6.14-5.79,6.14h-4.95ZM60.57,34.51c-1.77,0-3.42,1.74-3.73,3.94l-1.34,9.71c-.3,2.2.86,3.94,2.62,3.94s3.43-1.74,3.73-3.94l1.34-9.71c.31-2.21-.85-3.94-2.63-3.94"/>
    <path class="cls-3" d="M79.92,34.96c.55-3.93,3.67-7.19,6.84-7.19s5.32,3.26,4.77,7.19l-2.26,16.27h6.3l2.32-16.27c.54-3.93,3.66-7.19,6.84-7.19s5.31,3.26,4.76,7.19l-4.39,31.28c-.55,3.94-3.66,7.2-6.84,7.2s-5.31-3.26-4.76-7.2l1.4-10.14h-6.36l-1.4,10.14c-.55,3.94-3.66,7.2-6.84,7.2h-5.75l5.38-38.48Z"/>
    <path class="cls-3" d="M141.74,40.87c-.49,3.03-2.15,5.98-5.07,8.71,2.01,2.12,2.87,4.93,2.45,7.65l-.44,2.8c-1.1,7.2-8.62,13.42-16.68,13.42h-12.76l4.7-32.34c1.05-7.12,8.62-13.33,16.74-13.33s12.23,5.67,11.37,11.13l-.3,1.96ZM126.03,51.1c-2.01,0-3.91,2.04-4.28,4.54l-.91,6.51c-.36,2.49.98,4.55,2.99,4.55s3.97-2.05,4.34-4.55l.91-6.51c.37-2.5-1.04-4.54-3.06-4.54M128.48,34.51c-2.02,0-3.84,2.05-4.28,4.54l-.73,4.46c-.43,2.5.98,4.55,2.99,4.55s3.9-2.05,4.34-4.55l.73-4.46c.43-2.49-1.03-4.54-3.05-4.54"/>
  </g>
</svg>