<?xml version="1.0" encoding="UTF-8"?>
<svg xmlns="http://www.w3.org/2000/svg" viewBox="0 0 433.16 318.14">
  <defs>
    <style>
      .cls-1 {
        fill: #004990;
        stroke-width: 0px;
      }
    </style>
  </defs>
  <g>
    <path class="cls-1" d="M20.95,200.46c-2.13-.93-4.65-1.55-7.35-1.55-1.49,0-4.08.04-4.08,2.04,0,4.04,13.03.22,13.03,12.16,0,8.3-6.57,10.38-12.07,10.38-3.66,0-6.68-.44-10.23-1.46v-8.03c2.56,1.33,5.68,2.04,8.52,2.04,2.24,0,4.26-.58,4.26-2.13,0-4.17-13.03-.4-13.03-12.43,0-8.52,7.1-10.03,12.75-10.03,2.66,0,5.61.4,8.2,1.07v7.94Z"/>
    <path class="cls-1" d="M47.36,222.96h-8.45v-3.99h-.07c-1.07,3.24-3.52,4.53-6.04,4.53-4.76,0-6.5-3.11-6.5-7.59v-16.07h8.95v13.31c0,1.33,0,3.15,1.56,3.15s1.6-1.82,1.6-3.15v-13.31h8.95v23.12Z"/>
    <path class="cls-1" d="M60.39,199.84v5.24h.07c1.07-3.28,2.84-5.77,5.65-5.77.53,0,1.1.09,1.46.22v9.28c-.43-.22-1.21-.35-2.02-.35-2.48,0-4.58,2.71-4.58,6.12v8.39h-8.95v-23.12h8.38Z"/>
    <path class="cls-1" d="M91.92,222.96h-8.45v-3.99h-.07c-1.06,3.24-3.51,4.53-6.04,4.53-4.76,0-6.5-3.11-6.5-7.59v-16.07h8.95v13.31c0,1.33,0,3.15,1.56,3.15s1.6-1.82,1.6-3.15v-13.31h8.95v23.12Z"/>
    <path class="cls-1" d="M96.43,189.68h8.95v13.05h.07c.85-1.86,3.02-3.42,5.54-3.42,4.76,0,6.5,3.11,6.5,7.59v16.07h-8.95v-13.31c0-1.33,0-3.15-1.56-3.15s-1.6,1.82-1.6,3.15v13.31h-8.95v-33.29Z"/>
    <path class="cls-1" d="M123.02,200.64c2.66-.93,4.26-1.33,7.74-1.33,5.11,0,11.33,1.15,11.33,9.59v14.07h-8.31v-3.33h-.07c-1.24,2.62-3.52,3.86-6.04,3.86-3.44,0-6.78-1.95-6.78-6.79,0-7.1,5.11-8.52,9.55-8.52,1.24,0,2.66.22,3.48.31-.04-2.97-2.49-3.33-4.72-3.33s-4.4.84-6.18,1.95v-6.48ZM133.92,212.8h-.89c-1.85,0-3.98.22-3.98,2.62,0,1.6.71,2.22,2.09,2.22,1.85,0,2.77-2.13,2.77-4.13v-.71Z"/>
    <path class="cls-1" d="M146.24,199.84h8.45v3.99h.07c1.06-3.24,3.51-4.53,6.04-4.53,4.76,0,6.5,3.11,6.5,7.59v16.07h-8.95v-13.31c0-1.33,0-3.15-1.56-3.15s-1.6,1.82-1.6,3.15v13.31h-8.95v-23.12Z"/>
    <path class="cls-1" d="M180.9,199.84v24.19c0,6.08-2.88,8.79-6.85,8.79-1.95,0-3.87-.27-5.43-.71v-6.52c.46.22.96.31,1.46.31,1.35,0,1.88-1.42,1.88-2.88v-23.17h8.95ZM180.9,189.68v7.72h-8.95v-7.72h8.95Z"/>
    <path class="cls-1" d="M186.58,200.64c2.66-.93,4.26-1.33,7.74-1.33,5.11,0,11.33,1.15,11.33,9.59v14.07h-8.31v-3.33h-.07c-1.24,2.62-3.51,3.86-6.04,3.86-3.44,0-6.78-1.95-6.78-6.79,0-7.1,5.11-8.52,9.55-8.52,1.24,0,2.66.22,3.48.31-.04-2.97-2.48-3.33-4.72-3.33s-4.4.84-6.18,1.95v-6.48ZM197.48,212.8h-.89c-1.85,0-3.98.22-3.98,2.62,0,1.6.71,2.22,2.09,2.22,1.85,0,2.77-2.13,2.77-4.13v-.71Z"/>
    <path class="cls-1" d="M216.97,199.84l2.31,14.2h.07l2.2-14.2h8.59l-4.9,19.35c-1.77,7.28-3.44,13.62-10.44,13.62-2.34,0-4.12-.44-5.86-.8v-6.57c.71.27,1.42.44,2.66.44,1.78,0,2.81-.98,2.81-2.17,0-1.73-1.35-5.1-1.99-7.68l-4.72-16.2h9.27Z"/>
    <path class="cls-1" d="M233.76,200.64c2.66-.93,4.26-1.33,7.74-1.33,5.11,0,11.33,1.15,11.33,9.59v14.07h-8.31v-3.33h-.07c-1.24,2.62-3.52,3.86-6.04,3.86-3.44,0-6.78-1.95-6.78-6.79,0-7.1,5.11-8.52,9.55-8.52,1.24,0,2.66.22,3.48.31-.04-2.97-2.49-3.33-4.72-3.33s-4.4.84-6.18,1.95v-6.48ZM244.66,212.8h-.89c-1.85,0-3.98.22-3.98,2.62,0,1.6.71,2.22,2.09,2.22,1.85,0,2.77-2.13,2.77-4.13v-.71Z"/>
    <path class="cls-1" d="M291.56,200.46c-2.13-.93-4.65-1.55-7.35-1.55-1.49,0-4.08.04-4.08,2.04,0,4.04,13.03.22,13.03,12.16,0,8.3-6.57,10.38-12.07,10.38-3.66,0-6.67-.44-10.22-1.46v-8.03c2.56,1.33,5.68,2.04,8.52,2.04,2.24,0,4.26-.58,4.26-2.13,0-4.17-13.03-.4-13.03-12.43,0-8.52,7.1-10.03,12.75-10.03,2.66,0,5.61.4,8.2,1.07v7.94Z"/>
    <path class="cls-1" d="M304.7,214.09c.14,2.88,2.31,3.55,4.94,3.55,2.45,0,4.65-.53,6.07-1.46v5.99c-2.38.93-5.22,1.33-8.34,1.33-7.49,0-11.47-4.53-11.47-12.51s3.98-11.67,11.47-11.67,9.69,5.59,9.69,13.4v1.38h-12.36ZM309.32,209.21c0-1.78-.21-4.57-2.24-4.57s-2.52,2.75-2.41,4.57h4.65Z"/>
    <path class="cls-1" d="M329.62,209.03h.07l5.11-9.19h10.12l-6.25,10.21,6.5,12.91h-10.44l-5.04-11.23h-.07v11.23h-8.95v-33.29h8.95v19.35Z"/>
    <path class="cls-1" d="M369.14,222.96h-8.45v-3.99h-.07c-1.07,3.24-3.52,4.53-6.04,4.53-4.76,0-6.5-3.11-6.5-7.59v-16.07h8.95v13.31c0,1.33,0,3.15,1.56,3.15s1.6-1.82,1.6-3.15v-13.31h8.95v23.12Z"/>
    <path class="cls-1" d="M382.17,199.84v5.24h.07c1.07-3.28,2.84-5.77,5.65-5.77.53,0,1.1.09,1.46.22v9.28c-.43-.22-1.21-.35-2.02-.35-2.49,0-4.58,2.71-4.58,6.12v8.39h-8.95v-23.12h8.38Z"/>
    <path class="cls-1" d="M401.73,197.4h-8.95v-7.72h8.95v7.72ZM392.79,199.84h8.95v23.12h-8.95v-23.12Z"/>
    <path class="cls-1" d="M407.91,199.84v-5.33l8.95-3.42v8.74h4.05v6.66h-4.05v6.52c0,1.95.78,3.02,1.95,3.02.82,0,1.46-.13,2.1-.4v6.66c-1.95.71-3.94,1.2-6.14,1.2-4.62,0-6.85-2.88-6.85-9.01v-7.99h-3.16v-6.66h3.16Z"/>
    <path class="cls-1" d="M433.16,197.4h-8.95v-7.72h8.95v7.72ZM424.21,199.84h8.95v23.12h-8.95v-23.12Z"/>
  </g>
  <g>
    <path class="cls-1" d="M172.96,301.22c.77-4.64,2.01-10.37,4.37-20.55h7.77v27.44h-4.63c0-10.97.04-18.36.12-22.58h-.12c-.85,4.2-2.45,11.35-5.13,22.58h-4.86c-2.54-10.97-4.26-18.37-5.13-22.58h-.12c.11,4.22.14,11.61.14,22.58h-4.63v-27.44h7.78c2.33,10.25,3.61,15.93,4.35,20.55h.1Z"/>
    <path class="cls-1" d="M198.79,308.11c-.19-.31-.31-.73-.37-1.19h-.09c-.88.79-2.49,1.65-4.54,1.65-4.1,0-6.06-2.19-6.06-5.8,0-3.95,2.4-6.59,10.5-7.81v-.66c0-2.22-.58-3.68-2.27-3.68-1.43,0-2.1,1.44-2.42,2.84l-4.98-.43c.67-2.9,2.5-5.82,7.51-5.82,4.38,0,7.14,1.62,7.14,8.03v9.76c0,1.63.09,2.5.56,2.84v.28h-4.98ZM198.24,298.09c-3.93.65-5.41,2.23-5.41,4.26,0,1.53.67,2.52,2.12,2.52.95,0,2.24-.41,3.29-1.41v-5.36Z"/>
    <path class="cls-1" d="M207.42,308.11v-27.93h5.22v27.93h-5.22Z"/>
    <path class="cls-1" d="M226.95,308.11c-.19-.31-.31-.73-.37-1.19h-.09c-.88.79-2.49,1.65-4.54,1.65-4.1,0-6.06-2.19-6.06-5.8,0-3.95,2.4-6.59,10.5-7.81v-.66c0-2.22-.58-3.68-2.27-3.68-1.43,0-2.1,1.44-2.42,2.84l-4.98-.43c.67-2.9,2.5-5.82,7.51-5.82,4.38,0,7.14,1.62,7.14,8.03v9.76c0,1.63.09,2.5.56,2.84v.28h-4.98ZM226.4,298.09c-3.93.65-5.41,2.23-5.41,4.26,0,1.53.67,2.52,2.12,2.52.95,0,2.24-.41,3.29-1.41v-5.36Z"/>
    <path class="cls-1" d="M244.92,310.43c-.68,2.34-1.63,4.65-2.75,5.8-1.01,1.1-2.42,1.91-4.45,1.91-.87,0-1.64-.13-2.4-.38-.67-.22-1.26-.5-1.83-.84l1.18-3.77c.24.25.62.56,1.06.81.44.23.98.39,1.51.39.64,0,1.18-.35,1.63-1.02.43-.65.79-1.59,1.11-2.84l.59-3.15-6.95-19.68h5.59l1.7,6.52c.58,2.13,1.24,4.46,1.73,7.16h.17c.39-2.9.81-5.1,1.21-7.23l1.17-6.45h5.17l-5.43,22.76Z"/>
    <path class="cls-1" d="M261.73,292.43c-.29-.95-1.08-1.9-2.41-1.9-.69,0-1.34.16-1.75.49-.34.31-.59.81-.59,1.51s.4,1.25,1,1.65c.64.47,1.33.75,3.3,1.41,2.01.65,3.44,1.38,4.35,2.46.8.93,1.31,2.19,1.31,3.89,0,1.91-.68,3.52-2.01,4.72-1.32,1.19-3.24,1.9-5.62,1.9-1.94,0-3.54-.36-4.78-1.14-1.31-.8-2.19-2.12-2.82-3.76l4.91-.41c.38,1.16,1.31,1.99,2.64,1.99.74,0,1.39-.24,1.85-.74.36-.39.56-1.04.56-1.84,0-.65-.31-1.33-.91-1.81-.6-.54-1.75-.96-3.56-1.5-1.82-.59-3.14-1.31-4-2.4-.86-1.06-1.24-2.34-1.24-3.68,0-1.96.83-3.55,2.16-4.56,1.29-.98,2.87-1.51,5.26-1.51,2.03,0,3.61.57,4.82,1.52,1.05.81,1.77,1.94,2.09,3.3l-4.55.39Z"/>
    <path class="cls-1" d="M270.14,283.6v-3.71h5.22v3.71h-5.22ZM275.36,308.11h-5.22v-20.44h5.22v20.44Z"/>
    <path class="cls-1" d="M289.67,308.11c-.19-.31-.31-.73-.37-1.19h-.09c-.88.79-2.49,1.65-4.55,1.65-4.1,0-6.06-2.19-6.06-5.8,0-3.95,2.4-6.59,10.5-7.81v-.66c0-2.22-.58-3.68-2.27-3.68-1.42,0-2.1,1.44-2.42,2.84l-4.98-.43c.67-2.9,2.5-5.82,7.51-5.82,4.38,0,7.14,1.62,7.14,8.03v9.76c0,1.63.09,2.5.56,2.84v.28h-4.98ZM289.12,298.09c-3.93.65-5.41,2.23-5.41,4.26,0,1.53.67,2.52,2.12,2.52.95,0,2.24-.41,3.29-1.41v-5.36Z"/>
  </g>
  <g>
    <path class="cls-1" d="M68.88,244c-1.37-.74-2.89-1.16-4.41-1.16s-3.42.82-3.42,3.77c0,4.7,9.51,2.72,9.51,11.81,0,5.94-3.76,8.2-8.14,8.2-2.36,0-3.42-.39-5.56-1.05l.4-4.89c1.49,1.01,3.2,1.67,4.91,1.67s3.85-1.05,3.85-3.5c0-5.17-9.51-3.03-9.51-12,0-6.06,3.76-8.28,7.58-8.28,1.86,0,3.6.31,5.19.97l-.4,4.47Z"/>
    <path class="cls-1" d="M86.96,265.02c-1.52,1.05-3.26,1.59-5.5,1.59-5.28,0-8.36-3.81-8.36-10.37,0-5.79,2.46-10.57,7.43-10.57,5.94,0,7.61,5.09,7.61,12.08h-11.06c.19,3.22,1.99,5.05,4.57,5.05,2.02,0,3.76-.93,5.32-2.02v4.24ZM84.17,254.18c-.12-2.53-1.06-4.7-3.39-4.7s-3.51,2.02-3.7,4.7h7.09Z"/>
    <path class="cls-1" d="M101.79,250.45c-.75-.43-1.55-.74-2.83-.74-2.58,0-4.23,2.56-4.23,6.33s1.4,6.53,4.32,6.53c1.18,0,2.49-.54,3.2-.93l.19,4.31c-1.21.47-2.46.66-4.16.66-5.25,0-7.89-4.47-7.89-10.57s2.73-10.37,7.74-10.37c1.68,0,2.89.23,4.04.66l-.37,4.12Z"/>
    <path class="cls-1" d="M119.91,266.14h-3.95v-2.72h-.06c-1.27,1.94-3.08,3.19-5.25,3.19-3.79,0-5.44-3.34-5.44-7.85v-12.63h4.17v10.68c0,2.45.03,5.75,2.7,5.75,3.01,0,3.67-4.08,3.67-6.64v-9.79h4.16v20.01Z"/>
    <path class="cls-1" d="M124.29,246.13h3.7v4.55h.06c.19-1.87,1.9-5.01,4.38-5.01.4,0,.84,0,1.27.16v5.24c-.37-.27-1.12-.43-1.86-.43-3.39,0-3.39,5.28-3.39,8.16v7.34h-4.17v-20.01Z"/>
    <path class="cls-1" d="M136.38,237.51h4.17v4.97h-4.17v-4.97ZM136.38,246.13h4.17v20.01h-4.17v-20.01Z"/>
    <path class="cls-1" d="M146.3,249.94h-3.08v-3.81h3.08v-4l4.16-1.67v5.67h3.7v3.81h-3.7v9.32c0,1.71.37,3.3,1.96,3.3.75,0,1.46-.19,1.9-.54l.12,4.12c-.87.31-1.83.47-3.08.47-3.26,0-5.07-2.53-5.07-6.49v-10.18Z"/>
    <path class="cls-1" d="M157.11,237.51h4.16v4.97h-4.16v-4.97ZM157.11,246.13h4.16v20.01h-4.16v-20.01Z"/>
    <path class="cls-1" d="M178.5,265.02c-1.52,1.05-3.26,1.59-5.5,1.59-5.28,0-8.36-3.81-8.36-10.37,0-5.79,2.46-10.57,7.43-10.57,5.94,0,7.62,5.09,7.62,12.08h-11.06c.19,3.22,1.99,5.05,4.57,5.05,2.02,0,3.76-.93,5.31-2.02v4.24ZM175.7,254.18c-.12-2.53-1.06-4.7-3.39-4.7s-3.51,2.02-3.7,4.7h7.09Z"/>
    <path class="cls-1" d="M192.45,250.33c-1.27-.54-2.21-.85-3.73-.85-1.12,0-2.46.5-2.46,2.21,0,3.19,7.24,1.17,7.24,8.39,0,4.66-3.33,6.53-6.71,6.53-1.59,0-3.2-.35-4.72-.85l.25-4.27c1.31.82,2.67,1.32,4.1,1.32,1.06,0,2.73-.5,2.73-2.45,0-3.92-7.24-1.24-7.24-8.47,0-4.31,3.01-6.22,6.28-6.22,1.96,0,3.23.39,4.54.74l-.28,3.92Z"/>
    <path class="cls-1" d="M221.54,265.75c-1.59.47-3.29.85-4.94.85-7.02,0-11.9-4.39-11.9-13.56s4.54-14.49,11.9-14.49c1.43,0,3.33.35,4.91,1.13l-.31,4.59c-1.65-1.17-3.14-1.44-4.69-1.44-4.48,0-7.27,4.27-7.27,9.83s2.73,9.67,7.37,9.67c1.71,0,3.73-.47,4.76-1.13l.19,4.55Z"/>
    <path class="cls-1" d="M231.71,245.67c4.75,0,8.39,4,8.39,10.61,0,5.75-3.08,10.33-8.39,10.33s-8.36-4.58-8.36-10.33c0-6.6,3.64-10.61,8.36-10.61ZM231.71,262.57c3.2,0,4.04-3.57,4.04-6.92,0-3.07-1.31-5.94-4.04-5.94s-4.01,2.95-4.01,5.94c0,3.3.84,6.92,4.01,6.92Z"/>
    <path class="cls-1" d="M243.3,246.13h3.89v2.8h.06c1.31-2.45,3.2-3.26,4.76-3.26,2.24,0,3.82,1.05,4.72,3.54.96-2.41,3.05-3.54,5-3.54,3.95,0,5.07,3.38,5.07,7.85v12.63h-4.17v-11.93c0-1.87,0-4.51-2.39-4.51-2.77,0-3.11,4.12-3.11,6.72v9.71h-4.17v-11.93c0-1.87,0-4.51-2.39-4.51-2.77,0-3.11,4.12-3.11,6.72v9.71h-4.17v-20.01Z"/>
    <path class="cls-1" d="M270.93,246.13h3.88v2.8h.06c1.3-2.45,3.2-3.26,4.75-3.26,2.24,0,3.82,1.05,4.72,3.54.96-2.41,3.05-3.54,5-3.54,3.95,0,5.07,3.38,5.07,7.85v12.63h-4.16v-11.93c0-1.87,0-4.51-2.39-4.51-2.77,0-3.11,4.12-3.11,6.72v9.71h-4.16v-11.93c0-1.87,0-4.51-2.39-4.51-2.77,0-3.11,4.12-3.11,6.72v9.71h-4.17v-20.01Z"/>
    <path class="cls-1" d="M298.72,237.51h4.16v4.97h-4.16v-4.97ZM298.72,246.13h4.16v20.01h-4.16v-20.01Z"/>
    <path class="cls-1" d="M316.77,250.33c-1.27-.54-2.21-.85-3.73-.85-1.12,0-2.45.5-2.45,2.21,0,3.19,7.24,1.17,7.24,8.39,0,4.66-3.33,6.53-6.71,6.53-1.58,0-3.2-.35-4.72-.85l.25-4.27c1.31.82,2.67,1.32,4.1,1.32,1.06,0,2.74-.5,2.74-2.45,0-3.92-7.24-1.24-7.24-8.47,0-4.31,3.01-6.22,6.28-6.22,1.96,0,3.23.39,4.54.74l-.28,3.92Z"/>
    <path class="cls-1" d="M330.57,250.33c-1.27-.54-2.21-.85-3.73-.85-1.12,0-2.45.5-2.45,2.21,0,3.19,7.24,1.17,7.24,8.39,0,4.66-3.33,6.53-6.71,6.53-1.59,0-3.2-.35-4.72-.85l.25-4.27c1.31.82,2.67,1.32,4.1,1.32,1.06,0,2.74-.5,2.74-2.45,0-3.92-7.24-1.24-7.24-8.47,0-4.31,3.01-6.22,6.28-6.22,1.96,0,3.23.39,4.54.74l-.28,3.92Z"/>
    <path class="cls-1" d="M334.96,237.51h4.17v4.97h-4.17v-4.97ZM334.96,246.13h4.17v20.01h-4.17v-20.01Z"/>
    <path class="cls-1" d="M350.84,245.67c4.75,0,8.39,4,8.39,10.61,0,5.75-3.08,10.33-8.39,10.33s-8.36-4.58-8.36-10.33c0-6.6,3.64-10.61,8.36-10.61ZM350.84,262.57c3.2,0,4.04-3.57,4.04-6.92,0-3.07-1.3-5.94-4.04-5.94s-4.01,2.95-4.01,5.94c0,3.3.84,6.92,4.01,6.92Z"/>
    <path class="cls-1" d="M362.49,246.13h3.95v2.72h.06c1.31-2.29,3.08-3.19,5.25-3.19,3.79,0,5.44,3.34,5.44,7.85v12.63h-4.16v-10.68c0-2.45-.03-5.75-2.7-5.75-3.02,0-3.67,4.08-3.67,6.64v9.79h-4.16v-20.01Z"/>
  </g>
  <g>
    <path class="cls-1" d="M304.98,0v2.06s-28.02-1.58-53.2,17.43c-21.14,15.97-29.8,34.21-33.92,50.1-4.29,16.56-.29,28.89-15.79,51.46-14.5,21.12-39.23,34.16-55.14,34.87l-.19-155.93h158.23Z"/>
    <path class="cls-1" d="M298.17,36.15s-13.96,13.26-22.93,33.17c-.11.24-20.58.13-20.58.13,0,0,11.3-23.5,43.5-33.3Z"/>
    <path class="cls-1" d="M296.56,160.79s-14.02-11.58-20.65-30.22c-.09-.25-19.47-.06-19.47-.06,0,0,7.92,20.49,40.12,30.29Z"/>
    <path class="cls-1" d="M253.23,73.99l20.79-.05s-4.64,14.42-3.97,24.54l-21.53.15s-1.11-12.18,4.72-24.63Z"/>
    <path class="cls-1" d="M248.74,103.37l21.12-.05s1.23,15.34,4.15,22.46h-19.65s-4.98-10.01-5.62-22.41Z"/>
    <path class="cls-1" d="M281.43,130.66h23.21v30.73s-17.02-12.6-23.21-30.73Z"/>
    <path class="cls-1" d="M275.4,103.14h29.07v22.64h-25.44s-3.78-12.01-3.63-22.64Z"/>
    <path class="cls-1" d="M279.55,74.11h25.09v24.49l-29.76-.13s.47-13.16,4.67-24.36Z"/>
    <path class="cls-1" d="M281.41,69.53h23.06v-33.6s-13.56,10.46-23.06,33.6Z"/>
    <path class="cls-1" d="M220.69,123.93c-14.27,28.54-43.89,45.73-73.94,47.53l-.03,2.02h157.48s0-2.43,0-2.43c0,0-61.71-7.69-63.7-70.91-1.53-48.62,42.81-71.97,63.84-73.2,0,0,.15-5.06.08-9.97,0,0-18.66-.63-38.75,14.12-16.73,12.28-29,29.62-32.07,46.34-3.28,17.88-2.61,25.93-12.89,46.5Z"/>
  </g>
</svg>